STARTFONT 2.1
FONT -Fondu-Palatino-Medium-R-Normal--24-230-75-75-P-133-MacRoman-1
SIZE 23 75 75
FONTBOUNDINGBOX 28 25 -2 -7
COMMENT Created by Fondu from a mac NFNT/FONT resource
STARTPROPERTIES 17
FOUNDRY "Fondu"
FAMILY_NAME "Palatino"
WEIGHT_NAME "Medium"
SLANT "R"
SETWIDTH_NAME "Normal"
ADD_STYLE_NAME ""
PIXEL_SIZE 24
POINT_SIZE 230
RESOLUTION_X 75
RESOLUTION_Y 75
SPACING "P"
AVERAGE_WIDTH 133
CHARSET_REGISTRY "MacRoman"
CHARSET_ENCODING "1"
FONT_ASCENT 18
FONT_DESCENT 7
FACE_NAME "Palatino"
ENDPROPERTIES
CHARS 223
STARTCHAR space
ENCODING 32
SWIDTH 250 0
DWIDTH 6 0
BBX 1 0 0 -7
BITMAP
ENDCHAR
STARTCHAR exclam
ENCODING 33
SWIDTH 278 0
DWIDTH 4 0
BBX 2 17 1 0
BITMAP
C0
C0
C0
C0
C0
C0
C0
C0
C0
C0
C0
C0
C0
00
00
C0
C0
ENDCHAR
STARTCHAR quotedbl
ENCODING 34
SWIDTH 371 0
DWIDTH 8 0
BBX 6 6 1 11
BITMAP
CC
CC
CC
CC
CC
CC
ENDCHAR
STARTCHAR numbersign
ENCODING 35
SWIDTH 606 0
DWIDTH 15 0
BBX 13 16 1 0
BITMAP
0C60
0C60
0C60
0C60
0C60
7FF8
18C0
18C0
18C0
18C0
FFF0
3180
3180
3180
3180
3180
ENDCHAR
STARTCHAR dollar
ENCODING 36
SWIDTH 500 0
DWIDTH 12 0
BBX 10 19 1 -2
BITMAP
0800
3F00
6980
C880
C880
C800
C800
E800
7C00
3F00
0F80
09C0
08C0
08C0
88C0
C980
7F00
0800
0800
ENDCHAR
STARTCHAR percent
ENCODING 37
SWIDTH 840 0
DWIDTH 18 0
BBX 16 17 1 0
BITMAP
1C30
7250
63B0
C220
C260
C440
CCC0
7080
0180
010E
0339
0231
0661
0461
0C62
0866
0838
ENDCHAR
STARTCHAR ampersand
ENCODING 38
SWIDTH 778 0
DWIDTH 18 0
BBX 16 17 2 0
BITMAP
0780
0DC0
18C0
18C0
1980
0B00
0E00
1C3F
360C
670C
4308
C188
C1D0
C0E0
E0F1
7FBE
3E1C
ENDCHAR
STARTCHAR quotesingle
ENCODING 39
SWIDTH 208 0
DWIDTH 4 0
BBX 2 6 1 11
BITMAP
C0
C0
C0
C0
C0
C0
ENDCHAR
STARTCHAR parenleft
ENCODING 40
SWIDTH 333 0
DWIDTH 7 0
BBX 5 20 1 -3
BITMAP
08
10
30
60
60
60
C0
C0
C0
C0
C0
C0
C0
C0
60
60
60
30
10
08
ENDCHAR
STARTCHAR parenright
ENCODING 41
SWIDTH 333 0
DWIDTH 7 0
BBX 5 20 1 -3
BITMAP
80
40
60
30
30
30
18
18
18
18
18
18
18
18
30
30
30
60
40
80
ENDCHAR
STARTCHAR asterisk
ENCODING 42
SWIDTH 389 0
DWIDTH 9 0
BBX 7 8 1 9
BITMAP
18
18
D0
FE
36
D0
D8
18
ENDCHAR
STARTCHAR plus
ENCODING 43
SWIDTH 606 0
DWIDTH 14 0
BBX 12 11 1 1
BITMAP
0600
0600
0600
0600
0600
FFF0
0600
0600
0600
0600
0600
ENDCHAR
STARTCHAR comma
ENCODING 44
SWIDTH 250 0
DWIDTH 4 0
BBX 3 6 0 -4
BITMAP
60
60
60
40
C0
80
ENDCHAR
STARTCHAR hyphen
ENCODING 45
SWIDTH 333 0
DWIDTH 8 0
BBX 6 1 1 6
BITMAP
FC
ENDCHAR
STARTCHAR period
ENCODING 46
SWIDTH 250 0
DWIDTH 4 0
BBX 2 2 1 0
BITMAP
C0
C0
ENDCHAR
STARTCHAR slash
ENCODING 47
SWIDTH 606 0
DWIDTH 15 0
BBX 8 21 3 -4
BITMAP
03
03
03
06
06
06
0C
0C
0C
18
18
18
30
30
30
60
60
60
C0
C0
C0
ENDCHAR
STARTCHAR zero
ENCODING 48
SWIDTH 500 0
DWIDTH 12 0
BBX 10 17 1 0
BITMAP
1F00
6380
C1C0
C0C0
C0C0
C0C0
C0C0
C0C0
C0C0
C0C0
C0C0
C0C0
C0C0
C0C0
E0C0
7180
3F00
ENDCHAR
STARTCHAR one
ENCODING 49
SWIDTH 500 0
DWIDTH 12 0
BBX 8 17 1 0
BITMAP
0C
1C
3C
6C
CC
0C
0C
0C
0C
0C
0C
0C
0C
0C
0C
0C
3F
ENDCHAR
STARTCHAR two
ENCODING 50
SWIDTH 500 0
DWIDTH 12 0
BBX 10 17 1 0
BITMAP
1E00
7F00
C380
8180
8180
0180
0180
0300
0300
0600
0C00
1800
3000
6000
C000
FFC0
FFC0
ENDCHAR
STARTCHAR three
ENCODING 51
SWIDTH 500 0
DWIDTH 12 0
BBX 10 17 1 0
BITMAP
3E00
7F00
C380
8180
8180
0180
0300
0E00
3F00
0380
01C0
00C0
00C0
80C0
8180
C380
7E00
ENDCHAR
STARTCHAR four
ENCODING 52
SWIDTH 500 0
DWIDTH 12 0
BBX 10 17 1 0
BITMAP
0700
0700
0F00
0B00
1B00
1300
3300
2300
6300
4300
C300
FFC0
FFC0
0300
0300
0300
0FC0
ENDCHAR
STARTCHAR five
ENCODING 53
SWIDTH 500 0
DWIDTH 12 0
BBX 10 17 1 0
BITMAP
7F80
7F80
4000
4000
4000
4000
5E00
7F80
4380
01C0
00C0
00C0
00C0
80C0
8180
C380
7E00
ENDCHAR
STARTCHAR six
ENCODING 54
SWIDTH 500 0
DWIDTH 12 0
BBX 10 17 1 0
BITMAP
0300
0C00
1800
3000
3000
6000
6700
DF80
E1C0
C0C0
C0C0
C0C0
C0C0
C0C0
4180
7380
1E00
ENDCHAR
STARTCHAR seven
ENCODING 55
SWIDTH 500 0
DWIDTH 12 0
BBX 11 17 1 0
BITMAP
FFE0
FFE0
80C0
80C0
0180
0180
0300
0300
0600
0600
0C00
0C00
1800
1800
3800
3000
3000
ENDCHAR
STARTCHAR eight
ENCODING 56
SWIDTH 500 0
DWIDTH 12 0
BBX 10 17 1 0
BITMAP
1E00
6180
C0C0
C0C0
C0C0
E080
7100
3E00
3F00
6780
C1C0
C0C0
C0C0
C0C0
C0C0
6180
1E00
ENDCHAR
STARTCHAR nine
ENCODING 57
SWIDTH 500 0
DWIDTH 12 0
BBX 10 17 1 0
BITMAP
1E00
7380
6080
C0C0
C0C0
C0C0
C0C0
C0C0
E1C0
7EC0
3980
0180
0300
0300
0600
0C00
3000
ENDCHAR
STARTCHAR colon
ENCODING 58
SWIDTH 250 0
DWIDTH 4 0
BBX 2 10 1 0
BITMAP
C0
C0
00
00
00
00
00
00
C0
C0
ENDCHAR
STARTCHAR semicolon
ENCODING 59
SWIDTH 250 0
DWIDTH 4 0
BBX 3 14 0 -4
BITMAP
60
60
00
00
00
00
00
00
60
60
60
40
C0
80
ENDCHAR
STARTCHAR less
ENCODING 60
SWIDTH 606 0
DWIDTH 13 0
BBX 11 11 1 1
BITMAP
0060
01C0
0700
1C00
7000
C000
7000
1C00
0700
01C0
0060
ENDCHAR
STARTCHAR equal
ENCODING 61
SWIDTH 606 0
DWIDTH 14 0
BBX 12 5 1 4
BITMAP
FFF0
0000
0000
0000
FFF0
ENDCHAR
STARTCHAR greater
ENCODING 62
SWIDTH 606 0
DWIDTH 13 0
BBX 11 11 1 1
BITMAP
C000
7000
1C00
0700
01C0
0060
01C0
0700
1C00
7000
C000
ENDCHAR
STARTCHAR question
ENCODING 63
SWIDTH 444 0
DWIDTH 9 0
BBX 8 17 0 0
BITMAP
7E
C7
83
03
03
03
06
0C
18
30
30
30
10
00
00
30
30
ENDCHAR
STARTCHAR at
ENCODING 64
SWIDTH 747 0
DWIDTH 19 0
BBX 17 17 1 0
BITMAP
03F800
0E0E00
180300
20E100
231880
461880
461880
8C1880
8C3080
8C3100
8C7100
8CB200
473C00
400000
600200
380C00
0FF000
ENDCHAR
STARTCHAR A
ENCODING 65
SWIDTH 778 0
DWIDTH 20 0
BBX 19 17 1 0
BITMAP
004000
00E000
00E000
01F000
013000
033800
021800
061C00
040C00
0C0E00
0FFE00
180700
100300
300380
200180
6001C0
F003E0
ENDCHAR
STARTCHAR B
ENCODING 66
SWIDTH 611 0
DWIDTH 16 0
BBX 13 17 2 0
BITMAP
FFC0
3070
3030
3030
3030
3030
3060
3FC0
3070
3030
3018
3018
3018
3018
3030
3070
FFC0
ENDCHAR
STARTCHAR C
ENCODING 67
SWIDTH 709 0
DWIDTH 18 0
BBX 16 17 2 0
BITMAP
07FE
1C06
3002
6002
6000
C000
C000
C000
C000
C000
C000
E000
E000
7000
7003
3C0E
0FF8
ENDCHAR
STARTCHAR D
ENCODING 68
SWIDTH 774 0
DWIDTH 20 0
BBX 17 17 2 0
BITMAP
FFF800
301E00
300700
300700
300380
300380
300180
300180
300180
300180
300180
300180
300300
300300
300600
301C00
FFF000
ENDCHAR
STARTCHAR E
ENCODING 69
SWIDTH 611 0
DWIDTH 15 0
BBX 12 17 2 0
BITMAP
FFF0
3030
3010
3010
3000
3000
3040
3040
3FC0
3040
3040
3000
3000
3010
3010
3030
FFF0
ENDCHAR
STARTCHAR F
ENCODING 70
SWIDTH 556 0
DWIDTH 14 0
BBX 12 17 2 0
BITMAP
FFF0
3030
3010
3010
3000
3000
3040
3040
3FC0
3040
3040
3000
3000
3000
3000
3000
FC00
ENDCHAR
STARTCHAR G
ENCODING 71
SWIDTH 763 0
DWIDTH 18 0
BBX 16 17 2 0
BITMAP
07FE
1C06
3002
6002
6000
C000
C000
C000
C000
C000
C03F
E006
E006
7006
7006
3C1E
0FF0
ENDCHAR
STARTCHAR H
ENCODING 72
SWIDTH 832 0
DWIDTH 20 0
BBX 17 17 2 0
BITMAP
FC1F80
300600
300600
300600
300600
300600
300600
3FFE00
300600
300600
300600
300600
300600
300600
300600
300600
FC1F80
ENDCHAR
STARTCHAR I
ENCODING 73
SWIDTH 337 0
DWIDTH 9 0
BBX 6 17 2 0
BITMAP
FC
30
30
30
30
30
30
30
30
30
30
30
30
30
30
30
FC
ENDCHAR
STARTCHAR J
ENCODING 74
SWIDTH 333 0
DWIDTH 9 0
BBX 7 22 1 -5
BITMAP
7E
18
18
18
18
18
18
18
18
18
18
18
18
18
18
18
18
18
18
10
E0
C0
ENDCHAR
STARTCHAR K
ENCODING 75
SWIDTH 726 0
DWIDTH 18 0
BBX 16 17 2 0
BITMAP
FC1C
3030
3060
30C0
3180
3300
3600
3C00
3E00
3700
3380
31C0
30E0
3070
3038
301C
FC0F
ENDCHAR
STARTCHAR L
ENCODING 76
SWIDTH 611 0
DWIDTH 14 0
BBX 12 17 2 0
BITMAP
FC00
3000
3000
3000
3000
3000
3000
3000
3000
3000
3000
3000
3000
3010
3010
3030
FFF0
ENDCHAR
STARTCHAR M
ENCODING 77
SWIDTH 946 0
DWIDTH 24 0
BBX 21 17 2 0
BITMAP
F00038
380070
380070
3C00F0
2C00B0
2E01B0
260130
270330
230230
238630
218430
21CC30
20C830
20F830
207030
207030
F820F8
ENDCHAR
STARTCHAR N
ENCODING 78
SWIDTH 831 0
DWIDTH 21 0
BBX 18 17 2 0
BITMAP
F007C0
380100
3C0100
2E0100
270100
238100
238100
21C100
20E100
207100
203900
203900
201D00
200F00
200700
200300
F80100
ENDCHAR
STARTCHAR O
ENCODING 79
SWIDTH 786 0
DWIDTH 20 0
BBX 17 17 2 0
BITMAP
07F800
1C1E00
300700
600700
600380
C00380
C00180
C00180
C00180
C00180
C00180
E00180
E00300
700300
700600
3C1C00
0FF000
ENDCHAR
STARTCHAR P
ENCODING 80
SWIDTH 604 0
DWIDTH 14 0
BBX 12 17 2 0
BITMAP
FFE0
3070
3030
3030
3030
3030
3060
30C0
3700
3000
3000
3000
3000
3000
3000
3000
FC00
ENDCHAR
STARTCHAR Q
ENCODING 81
SWIDTH 786 0
DWIDTH 20 0
BBX 17 21 2 -4
BITMAP
07F800
1C1E00
300700
600700
600380
C00380
C00180
C00180
C00180
C00180
C00180
E00180
E00300
700300
700600
3C1C00
0FF000
018000
07F800
0C3F80
000700
ENDCHAR
STARTCHAR R
ENCODING 82
SWIDTH 668 0
DWIDTH 17 0
BBX 15 17 2 0
BITMAP
FFE0
3070
3030
3030
3030
3030
3060
30C0
3700
3380
31C0
30E0
3060
3070
3038
301C
FC0E
ENDCHAR
STARTCHAR S
ENCODING 83
SWIDTH 525 0
DWIDTH 14 0
BBX 11 17 2 0
BITMAP
1FC0
60C0
4040
C040
C000
C000
E000
7C00
3F80
07C0
00E0
0060
0060
8040
80C0
C180
FE00
ENDCHAR
STARTCHAR T
ENCODING 84
SWIDTH 613 0
DWIDTH 15 0
BBX 14 17 1 0
BITMAP
FFFC
C30C
8304
8304
0300
0300
0300
0300
0300
0300
0300
0300
0300
0300
0300
0300
0FC0
ENDCHAR
STARTCHAR U
ENCODING 85
SWIDTH 778 0
DWIDTH 20 0
BBX 17 17 2 0
BITMAP
FC0F80
300200
300200
300200
300200
300200
300200
300200
300200
300200
300200
300200
380200
380600
1C0400
1F1C00
07F000
ENDCHAR
STARTCHAR V
ENCODING 86
SWIDTH 722 0
DWIDTH 17 0
BBX 16 17 1 0
BITMAP
FC1F
3004
3004
180C
1808
1808
0C18
0C10
0C10
0630
0620
0620
0360
0340
0340
0180
0180
ENDCHAR
STARTCHAR W
ENCODING 87
SWIDTH 1000 0
DWIDTH 26 0
BBX 25 17 1 0
BITMAP
FC080F80
300C0200
301C0600
301C0400
18160400
18360C00
18260800
0C230800
0C631800
0C431000
06419000
06C1B000
0681A000
0380E000
0380E000
0300C000
01004000
ENDCHAR
STARTCHAR X
ENCODING 88
SWIDTH 667 0
DWIDTH 17 0
BBX 16 17 1 0
BITMAP
F83E
7008
3818
1C10
0C30
0E20
0760
03C0
07C0
04C0
0CE0
0870
1830
1038
301C
200E
F81F
ENDCHAR
STARTCHAR Y
ENCODING 89
SWIDTH 667 0
DWIDTH 17 0
BBX 17 17 0 0
BITMAP
F00380
380300
1C0600
0C0C00
060800
071800
033000
01E000
01E000
00C000
00C000
00C000
00C000
00C000
00C000
00C000
03F000
ENDCHAR
STARTCHAR Z
ENCODING 90
SWIDTH 667 0
DWIDTH 17 0
BBX 16 17 1 0
BITMAP
7FFF
400E
401C
0038
0070
0060
00E0
01C0
0380
0300
0700
0E00
1C00
1800
3802
7002
FFFE
ENDCHAR
STARTCHAR bracketleft
ENCODING 91
SWIDTH 333 0
DWIDTH 6 0
BBX 4 20 1 -3
BITMAP
F0
C0
C0
C0
C0
C0
C0
C0
C0
C0
C0
C0
C0
C0
C0
C0
C0
C0
C0
F0
ENDCHAR
STARTCHAR backslash
ENCODING 92
SWIDTH 606 0
DWIDTH 14 0
BBX 10 18 2 0
BITMAP
C000
C000
6000
6000
3000
3000
1800
1800
0C00
0C00
0600
0600
0300
0300
0180
0180
00C0
00C0
ENDCHAR
STARTCHAR bracketright
ENCODING 93
SWIDTH 333 0
DWIDTH 6 0
BBX 4 20 1 -3
BITMAP
F0
30
30
30
30
30
30
30
30
30
30
30
30
30
30
30
30
30
30
F0
ENDCHAR
STARTCHAR asciicircum
ENCODING 94
SWIDTH 606 0
DWIDTH 13 0
BBX 12 11 1 6
BITMAP
0400
0E00
0A00
1B00
1100
3180
2080
60C0
4040
C060
8020
ENDCHAR
STARTCHAR underscore
ENCODING 95
SWIDTH 500 0
DWIDTH 15 0
BBX 15 1 0 -4
BITMAP
FFFE
ENDCHAR
STARTCHAR grave
ENCODING 96
SWIDTH 333 0
DWIDTH 8 0
BBX 5 4 1 13
BITMAP
C0
60
30
18
ENDCHAR
STARTCHAR a
ENCODING 97
SWIDTH 500 0
DWIDTH 13 0
BBX 11 12 1 0
BITMAP
1F00
7380
41C0
00C0
01C0
0FC0
78C0
E0C0
C0C0
C1C0
E6C0
7CE0
ENDCHAR
STARTCHAR b
ENCODING 98
SWIDTH 553 0
DWIDTH 15 0
BBX 14 17 0 0
BITMAP
3000
F000
3000
3000
3000
31E0
37F8
3838
301C
300C
300C
300C
300C
300C
3818
3E38
37E0
ENDCHAR
STARTCHAR c
ENCODING 99
SWIDTH 444 0
DWIDTH 12 0
BBX 11 12 1 0
BITMAP
1F80
71C0
60C0
C040
C000
C000
C000
C000
E000
7060
7DC0
1F00
ENDCHAR
STARTCHAR d
ENCODING 100
SWIDTH 611 0
DWIDTH 15 0
BBX 13 17 1 0
BITMAP
0030
00F0
0030
0030
0030
1FB0
71F0
6070
C030
C030
C030
C030
C030
E030
7070
7FB0
1E38
ENDCHAR
STARTCHAR e
ENCODING 101
SWIDTH 479 0
DWIDTH 13 0
BBX 11 12 1 0
BITMAP
1F00
73C0
60C0
C0E0
C060
FFE0
C000
C000
E000
7060
7DC0
1F00
ENDCHAR
STARTCHAR f
ENCODING 102
SWIDTH 333 0
DWIDTH 7 0
BBX 7 17 0 0
BITMAP
06
0E
12
30
30
30
FE
30
30
30
30
30
30
30
30
30
78
ENDCHAR
STARTCHAR g
ENCODING 103
SWIDTH 556 0
DWIDTH 13 0
BBX 12 19 1 -7
BITMAP
1F80
31F0
60C0
60C0
60C0
60C0
7180
3F00
1800
3000
3FC0
3FE0
6070
C030
C030
C030
C060
71C0
1F00
ENDCHAR
STARTCHAR h
ENCODING 104
SWIDTH 582 0
DWIDTH 14 0
BBX 13 17 0 0
BITMAP
3000
F000
3000
3000
3000
31C0
37E0
3870
3030
3030
3030
3030
3030
3030
3030
3030
7838
ENDCHAR
STARTCHAR i
ENCODING 105
SWIDTH 291 0
DWIDTH 6 0
BBX 5 16 0 0
BITMAP
30
30
00
00
30
F0
30
30
30
30
30
30
30
30
30
78
ENDCHAR
STARTCHAR j
ENCODING 106
SWIDTH 234 0
DWIDTH 6 0
BBX 5 23 -1 -7
BITMAP
18
18
00
00
18
78
18
18
18
18
18
18
18
18
18
18
18
18
18
18
10
E0
C0
ENDCHAR
STARTCHAR k
ENCODING 107
SWIDTH 556 0
DWIDTH 12 0
BBX 12 17 0 0
BITMAP
3000
F000
3000
3000
3000
3060
30C0
3180
3300
3600
3C00
3E00
3700
3380
31C0
30E0
7870
ENDCHAR
STARTCHAR l
ENCODING 108
SWIDTH 291 0
DWIDTH 6 0
BBX 5 17 0 0
BITMAP
30
F0
30
30
30
30
30
30
30
30
30
30
30
30
30
30
78
ENDCHAR
STARTCHAR m
ENCODING 109
SWIDTH 883 0
DWIDTH 22 0
BBX 21 12 0 0
BITMAP
31C1C0
F7E7E0
387870
303030
303030
303030
303030
303030
303030
303030
303030
787838
ENDCHAR
STARTCHAR n
ENCODING 110
SWIDTH 582 0
DWIDTH 14 0
BBX 13 12 0 0
BITMAP
31C0
F7E0
3870
3030
3030
3030
3030
3030
3030
3030
3030
7838
ENDCHAR
STARTCHAR o
ENCODING 111
SWIDTH 546 0
DWIDTH 15 0
BBX 13 12 1 0
BITMAP
0FC0
70F0
6030
C038
C018
C018
C018
C018
E018
6030
7870
1F80
ENDCHAR
STARTCHAR p
ENCODING 112
SWIDTH 601 0
DWIDTH 15 0
BBX 14 19 0 -7
BITMAP
31E0
F7F8
3838
301C
300C
300C
300C
300C
300C
3818
3E38
37E0
3000
3000
3000
3000
3000
3000
FC00
ENDCHAR
STARTCHAR q
ENCODING 113
SWIDTH 560 0
DWIDTH 15 0
BBX 13 19 1 -7
BITMAP
1FB0
71F0
6070
C030
C030
C030
C030
C030
E030
7070
7FB0
1E30
0030
0030
0030
0030
0030
0030
0078
ENDCHAR
STARTCHAR r
ENCODING 114
SWIDTH 395 0
DWIDTH 9 0
BBX 9 12 0 0
BITMAP
3380
F780
3880
3000
3000
3000
3000
3000
3000
3000
3000
7800
ENDCHAR
STARTCHAR s
ENCODING 115
SWIDTH 424 0
DWIDTH 11 0
BBX 9 12 1 0
BITMAP
1F00
6300
C100
C000
F000
7E00
1F00
0380
0180
8180
C300
FE00
ENDCHAR
STARTCHAR t
ENCODING 116
SWIDTH 326 0
DWIDTH 8 0
BBX 7 16 0 0
BITMAP
10
30
30
30
30
FE
30
30
30
30
30
30
30
30
3E
1C
ENDCHAR
STARTCHAR u
ENCODING 117
SWIDTH 603 0
DWIDTH 14 0
BBX 13 12 0 0
BITMAP
3030
F0F0
3030
3030
3030
3030
3030
3030
3030
3870
1FB0
0E38
ENDCHAR
STARTCHAR v
ENCODING 118
SWIDTH 565 0
DWIDTH 13 0
BBX 13 12 0 0
BITMAP
F038
6010
6030
3020
3060
1840
18C0
0C80
0D80
0700
0700
0200
ENDCHAR
STARTCHAR w
ENCODING 119
SWIDTH 834 0
DWIDTH 19 0
BBX 19 12 0 0
BITMAP
F060E0
606040
60E0C0
30B080
30B080
31B180
191900
191900
1B1B00
0E0E00
0E0E00
040400
ENDCHAR
STARTCHAR x
ENCODING 120
SWIDTH 516 0
DWIDTH 12 0
BBX 12 12 0 0
BITMAP
E070
7060
38C0
1980
0F00
0600
0600
0F00
1980
31C0
60E0
E070
ENDCHAR
STARTCHAR y
ENCODING 121
SWIDTH 556 0
DWIDTH 13 0
BBX 13 19 0 -7
BITMAP
F038
6010
6030
3020
3060
1840
18C0
0C80
0D80
0700
0700
0200
0600
0400
0C00
0800
1800
F000
E000
ENDCHAR
STARTCHAR z
ENCODING 122
SWIDTH 500 0
DWIDTH 12 0
BBX 10 12 1 0
BITMAP
FFC0
81C0
8380
0700
0E00
0C00
1C00
3800
7000
E040
C040
FFC0
ENDCHAR
STARTCHAR braceleft
ENCODING 123
SWIDTH 333 0
DWIDTH 7 0
BBX 5 20 1 -3
BITMAP
18
20
60
60
60
60
60
60
40
80
40
60
60
60
60
60
60
60
20
18
ENDCHAR
STARTCHAR bar
ENCODING 124
SWIDTH 606 0
DWIDTH 14 0
BBX 2 17 6 0
BITMAP
C0
C0
C0
C0
C0
C0
C0
C0
C0
C0
C0
C0
C0
C0
C0
C0
C0
ENDCHAR
STARTCHAR braceright
ENCODING 125
SWIDTH 333 0
DWIDTH 7 0
BBX 5 20 1 -3
BITMAP
C0
20
30
30
30
30
30
30
10
08
10
30
30
30
30
30
30
30
20
C0
ENDCHAR
STARTCHAR asciitilde
ENCODING 126
SWIDTH 606 0
DWIDTH 14 0
BBX 12 3 1 6
BITMAP
3C30
7FE0
C3C0
ENDCHAR
STARTCHAR Adieresis
ENCODING 128
SWIDTH 778 0
DWIDTH 20 0
BBX 19 17 1 0
BITMAP
019800
019800
000000
000000
000000
007000
00F000
019800
031800
020C00
07FC00
0C0600
180600
100300
300380
600180
F007E0
ENDCHAR
STARTCHAR Aring
ENCODING 129
SWIDTH 778 0
DWIDTH 20 0
BBX 19 17 1 0
BITMAP
007000
008800
008800
007000
000000
007000
00F000
019800
031800
020C00
07FC00
0C0600
180600
100300
300380
600180
F007E0
ENDCHAR
STARTCHAR Ccedilla
ENCODING 130
SWIDTH 709 0
DWIDTH 18 0
BBX 16 22 2 -5
BITMAP
07FE
1C06
3002
6002
6000
C000
C000
C000
C000
C000
C000
E000
E000
7000
7003
3C0E
0FF8
0100
0180
00C0
00C0
0380
ENDCHAR
STARTCHAR Eacute
ENCODING 131
SWIDTH 611 0
DWIDTH 15 0
BBX 12 17 2 0
BITMAP
0300
0600
0C00
1800
0000
FFF0
3030
3010
3010
3000
3F00
3000
3000
3010
3010
3030
FFF0
ENDCHAR
STARTCHAR Ntilde
ENCODING 132
SWIDTH 831 0
DWIDTH 21 0
BBX 18 17 2 0
BITMAP
031000
049000
046000
000000
000000
F807C0
3C0100
2E0100
270100
23C100
21E100
207100
203900
201D00
200F00
200700
F80300
ENDCHAR
STARTCHAR Odieresis
ENCODING 133
SWIDTH 786 0
DWIDTH 20 0
BBX 17 17 2 0
BITMAP
066000
066000
000000
000000
000000
07F800
1C1E00
300700
600700
600380
C00180
E00180
E00300
700300
700600
3C1C00
0FF000
ENDCHAR
STARTCHAR Udieresis
ENCODING 134
SWIDTH 778 0
DWIDTH 20 0
BBX 17 17 2 0
BITMAP
066000
066000
000000
000000
000000
FC0F80
300200
300200
300200
300200
300200
300200
380200
380600
1C0400
1F1C00
07F000
ENDCHAR
STARTCHAR aacute
ENCODING 135
SWIDTH 500 0
DWIDTH 13 0
BBX 11 17 1 0
BITMAP
0300
0600
0C00
1800
0000
1F00
7380
41C0
00C0
01C0
0FC0
78C0
E0C0
C0C0
C1C0
E6C0
7CE0
ENDCHAR
STARTCHAR agrave
ENCODING 136
SWIDTH 500 0
DWIDTH 13 0
BBX 11 17 1 0
BITMAP
1800
0C00
0600
0300
0000
1F00
7380
41C0
00C0
01C0
0FC0
78C0
E0C0
C0C0
C1C0
E6C0
7CE0
ENDCHAR
STARTCHAR acircumflex
ENCODING 137
SWIDTH 500 0
DWIDTH 13 0
BBX 11 17 1 0
BITMAP
0400
0E00
1B00
3180
0000
1F00
7380
41C0
00C0
01C0
0FC0
78C0
E0C0
C0C0
C1C0
E6C0
7CE0
ENDCHAR
STARTCHAR adieresis
ENCODING 138
SWIDTH 500 0
DWIDTH 13 0
BBX 11 16 1 0
BITMAP
3300
3300
0000
0000
1F00
7380
41C0
00C0
01C0
0FC0
78C0
E0C0
C0C0
C1C0
E6C0
7CE0
ENDCHAR
STARTCHAR atilde
ENCODING 139
SWIDTH 500 0
DWIDTH 13 0
BBX 11 15 1 0
BITMAP
3980
6700
0000
1F00
7380
41C0
00C0
01C0
0FC0
78C0
E0C0
C0C0
C1C0
E6C0
7CE0
ENDCHAR
STARTCHAR aring
ENCODING 140
SWIDTH 500 0
DWIDTH 13 0
BBX 11 17 1 0
BITMAP
0E00
1100
1100
0E00
0000
1F00
7380
41C0
00C0
01C0
0FC0
78C0
E0C0
C0C0
C1C0
E6C0
7CE0
ENDCHAR
STARTCHAR ccedilla
ENCODING 141
SWIDTH 444 0
DWIDTH 12 0
BBX 11 17 1 -5
BITMAP
1F80
71C0
60C0
C040
C000
C000
C000
C000
E000
7060
7DC0
1F00
0800
0C00
0600
0600
1C00
ENDCHAR
STARTCHAR eacute
ENCODING 142
SWIDTH 479 0
DWIDTH 13 0
BBX 11 17 1 0
BITMAP
0300
0600
0C00
1800
0000
1F00
73C0
60C0
C0E0
C060
FFE0
C000
C000
E000
7060
7DC0
1F00
ENDCHAR
STARTCHAR egrave
ENCODING 143
SWIDTH 479 0
DWIDTH 13 0
BBX 11 17 1 0
BITMAP
1800
0C00
0600
0300
0000
1F00
73C0
60C0
C0E0
C060
FFE0
C000
C000
E000
7060
7DC0
1F00
ENDCHAR
STARTCHAR ecircumflex
ENCODING 144
SWIDTH 479 0
DWIDTH 13 0
BBX 11 17 1 0
BITMAP
0400
0E00
1B00
3180
0000
1F00
73C0
60C0
C0E0
C060
FFE0
C000
C000
E000
7060
7DC0
1F00
ENDCHAR
STARTCHAR edieresis
ENCODING 145
SWIDTH 479 0
DWIDTH 13 0
BBX 11 16 1 0
BITMAP
3300
3300
0000
0000
1F00
73C0
60C0
C0E0
C060
FFE0
C000
C000
E000
7060
7DC0
1F00
ENDCHAR
STARTCHAR iacute
ENCODING 146
SWIDTH 287 0
DWIDTH 7 0
BBX 5 17 0 0
BITMAP
18
30
60
C0
00
30
F0
30
30
30
30
30
30
30
30
30
78
ENDCHAR
STARTCHAR igrave
ENCODING 147
SWIDTH 287 0
DWIDTH 7 0
BBX 5 17 0 0
BITMAP
C0
60
30
18
00
30
F0
30
30
30
30
30
30
30
30
30
78
ENDCHAR
STARTCHAR icircumflex
ENCODING 148
SWIDTH 287 0
DWIDTH 7 0
BBX 7 17 -1 0
BITMAP
10
38
6C
C6
00
18
78
18
18
18
18
18
18
18
18
18
3C
ENDCHAR
STARTCHAR idieresis
ENCODING 149
SWIDTH 287 0
DWIDTH 7 0
BBX 6 16 0 0
BITMAP
CC
CC
00
00
30
F0
30
30
30
30
30
30
30
30
30
78
ENDCHAR
STARTCHAR ntilde
ENCODING 150
SWIDTH 582 0
DWIDTH 14 0
BBX 13 15 0 0
BITMAP
1CC0
3380
0000
31C0
F7E0
3870
3030
3030
3030
3030
3030
3030
3030
3030
7838
ENDCHAR
STARTCHAR oacute
ENCODING 151
SWIDTH 546 0
DWIDTH 15 0
BBX 13 17 1 0
BITMAP
0180
0300
0600
0C00
0000
0FC0
70F0
6030
C038
C018
C018
C018
C018
E018
6030
7870
1F80
ENDCHAR
STARTCHAR ograve
ENCODING 152
SWIDTH 546 0
DWIDTH 15 0
BBX 13 17 1 0
BITMAP
0C00
0600
0300
0180
0000
0FC0
70F0
6030
C038
C018
C018
C018
C018
E018
6030
7870
1F80
ENDCHAR
STARTCHAR ocircumflex
ENCODING 153
SWIDTH 546 0
DWIDTH 15 0
BBX 13 17 1 0
BITMAP
0200
0700
0D80
18C0
0000
0FC0
70F0
6030
C038
C018
C018
C018
C018
E018
6030
7870
1F80
ENDCHAR
STARTCHAR odieresis
ENCODING 154
SWIDTH 546 0
DWIDTH 15 0
BBX 13 16 1 0
BITMAP
1980
1980
0000
0000
0FC0
70F0
6030
C038
C018
C018
C018
C018
E018
6030
7870
1F80
ENDCHAR
STARTCHAR otilde
ENCODING 155
SWIDTH 546 0
DWIDTH 15 0
BBX 13 15 1 0
BITMAP
1CC0
3380
0000
0FC0
70F0
6030
C038
C018
C018
C018
C018
E018
6030
7870
1F80
ENDCHAR
STARTCHAR uacute
ENCODING 156
SWIDTH 603 0
DWIDTH 14 0
BBX 13 17 0 0
BITMAP
0180
0300
0600
0C00
0000
3030
F0F0
3030
3030
3030
3030
3030
3030
3030
3870
1FB0
0E38
ENDCHAR
STARTCHAR ugrave
ENCODING 157
SWIDTH 603 0
DWIDTH 14 0
BBX 13 17 0 0
BITMAP
0C00
0600
0300
0180
0000
3030
F0F0
3030
3030
3030
3030
3030
3030
3030
3870
1FB0
0E38
ENDCHAR
STARTCHAR ucircumflex
ENCODING 158
SWIDTH 603 0
DWIDTH 14 0
BBX 13 17 0 0
BITMAP
0200
0700
0D80
18C0
0000
3030
F0F0
3030
3030
3030
3030
3030
3030
3030
3870
1FB0
0E38
ENDCHAR
STARTCHAR udieresis
ENCODING 159
SWIDTH 603 0
DWIDTH 14 0
BBX 13 16 0 0
BITMAP
1980
1980
0000
0000
3030
F0F0
3030
3030
3030
3030
3030
3030
3030
3870
1FB0
0E38
ENDCHAR
STARTCHAR dagger
ENCODING 160
SWIDTH 500 0
DWIDTH 12 0
BBX 10 17 1 0
BITMAP
0C00
0C00
0C00
0C00
0C00
FFC0
0C00
0C00
0C00
0C00
0C00
0C00
0C00
0C00
0C00
0C00
0C00
ENDCHAR
STARTCHAR degree
ENCODING 161
SWIDTH 400 0
DWIDTH 9 0
BBX 7 7 1 10
BITMAP
38
6C
C6
C6
C6
6C
38
ENDCHAR
STARTCHAR cent
ENCODING 162
SWIDTH 500 0
DWIDTH 13 0
BBX 11 16 1 -2
BITMAP
0100
0100
1F80
71C0
62C0
C240
C400
C400
C400
C400
E800
6860
79C0
1F00
2000
2000
ENDCHAR
STARTCHAR sterling
ENCODING 163
SWIDTH 500 0
DWIDTH 14 0
BBX 12 17 1 0
BITMAP
01F0
0630
0C10
0C00
1800
1800
1800
1800
7FC0
1800
1800
1800
3000
3010
2010
7FF0
8FF0
ENDCHAR
STARTCHAR section
ENCODING 164
SWIDTH 500 0
DWIDTH 13 0
BBX 11 22 1 -5
BITMAP
1F80
71C0
4040
C040
C000
E000
7800
3F00
27C0
41C0
C060
C060
F040
7EC0
1F80
03C0
00E0
0060
4060
4040
71C0
3F00
ENDCHAR
STARTCHAR bullet
ENCODING 165
SWIDTH 606 0
DWIDTH 15 0
BBX 9 9 3 4
BITMAP
1C00
7F00
7F00
FF80
FF80
FF80
7F00
7F00
1C00
ENDCHAR
STARTCHAR paragraph
ENCODING 166
SWIDTH 628 0
DWIDTH 15 0
BBX 13 22 1 -5
BITMAP
1FF8
6660
E660
E660
E660
E660
E660
E660
6660
1E60
0660
0660
0660
0660
0660
0660
0660
0660
0660
0660
0660
1FF8
ENDCHAR
STARTCHAR germandbls
ENCODING 167
SWIDTH 556 0
DWIDTH 14 0
BBX 13 17 0 0
BITMAP
07C0
0860
1030
3030
3030
30E0
F100
3300
3300
3380
31E0
3070
3038
3018
3218
3330
7BE0
ENDCHAR
STARTCHAR registered
ENCODING 168
SWIDTH 747 0
DWIDTH 19 0
BBX 17 17 1 0
BITMAP
03E000
0C1800
100400
2FC200
466100
466100
866080
87C080
86C080
866080
866080
463100
4F3900
200200
100400
0C1800
03E000
ENDCHAR
STARTCHAR copyright
ENCODING 169
SWIDTH 747 0
DWIDTH 19 0
BBX 17 17 1 0
BITMAP
03E000
0C1800
100400
23E200
4E3100
4C1100
980080
980080
980080
980080
980080
4C0100
4E3100
23C200
100400
0C1800
03E000
ENDCHAR
STARTCHAR trademark
ENCODING 170
SWIDTH 979 0
DWIDTH 25 0
BBX 23 10 1 7
BITMAP
FFB80E
88980C
889C14
081414
081624
081224
081344
081144
081184
3E388E
ENDCHAR
STARTCHAR acute
ENCODING 171
SWIDTH 333 0
DWIDTH 8 0
BBX 5 4 2 13
BITMAP
18
30
60
C0
ENDCHAR
STARTCHAR dieresis
ENCODING 172
SWIDTH 333 0
DWIDTH 8 0
BBX 6 2 1 14
BITMAP
CC
CC
ENDCHAR
STARTCHAR notequal
ENCODING 173
SWIDTH 549 0
DWIDTH 14 0
BBX 10 13 2 0
BITMAP
0180
0180
0300
0300
FFC0
FFC0
0C00
FFC0
FFC0
3000
3000
6000
6000
ENDCHAR
STARTCHAR AE
ENCODING 174
SWIDTH 944 0
DWIDTH 22 0
BBX 21 17 0 0
BITMAP
03FFF8
007818
00D808
00D800
019800
019800
031820
031820
061FE0
061820
0FF820
0C1800
181800
181800
301808
301818
FC3FF8
ENDCHAR
STARTCHAR Oslash
ENCODING 175
SWIDTH 833 0
DWIDTH 20 0
BBX 18 17 1 0
BITMAP
03F8C0
0E1F80
180700
300780
300D80
6019C0
6030C0
6060C0
60C0C0
6180C0
6300C0
7600C0
3C0180
380180
3C0300
6F0E00
C3F800
ENDCHAR
STARTCHAR infinity
ENCODING 176
SWIDTH 713 0
DWIDTH 17 0
BBX 15 7 1 4
BITMAP
3838
7C7C
C6C6
C386
C7C6
7C7C
3838
ENDCHAR
STARTCHAR plusminus
ENCODING 177
SWIDTH 549 0
DWIDTH 12 0
BBX 10 14 1 0
BITMAP
0C00
0C00
0C00
0C00
FFC0
FFC0
0C00
0C00
0C00
0C00
0000
0000
FFC0
FFC0
ENDCHAR
STARTCHAR lessequal
ENCODING 178
SWIDTH 549 0
DWIDTH 14 0
BBX 12 15 0 0
BITMAP
0070
01E0
0780
1E00
7800
E000
E000
7800
1E00
03C0
00F0
0030
0000
FFF0
FFF0
ENDCHAR
STARTCHAR greaterequal
ENCODING 179
SWIDTH 549 0
DWIDTH 14 0
BBX 12 15 0 0
BITMAP
E000
7800
1E00
0780
01E0
0070
0070
01E0
0780
3E00
F000
C000
0000
FFF0
FFF0
ENDCHAR
STARTCHAR yen
ENCODING 180
SWIDTH 500 0
DWIDTH 17 0
BBX 17 17 0 0
BITMAP
F00380
380300
1C0600
0C0C00
060800
071800
033000
01E000
0FFC00
00C000
00C000
0FFC00
00C000
00C000
00C000
00C000
03F000
ENDCHAR
STARTCHAR mu
ENCODING 181
SWIDTH 576 0
DWIDTH 14 0
BBX 13 18 1 -5
BITMAP
60C0
60C0
60C0
60C0
60C0
60C0
60C0
60C0
60C0
60C0
71C8
3FF8
6F30
6000
6000
6000
6000
C000
ENDCHAR
STARTCHAR partialdiff
ENCODING 182
SWIDTH 494 0
DWIDTH 12 0
BBX 10 17 1 0
BITMAP
3E00
6300
C180
0180
00C0
00C0
1EC0
73C0
61C0
C0C0
C0C0
C180
C180
C180
E300
7700
3E00
ENDCHAR
STARTCHAR summation
ENCODING 183
SWIDTH 713 0
DWIDTH 18 0
BBX 14 20 2 -3
BITMAP
FFF8
E018
7008
3800
1C00
0E00
0700
0380
01C0
00C0
0180
0300
0600
0C00
1800
3000
6004
C00C
FFFC
FFFC
ENDCHAR
STARTCHAR product
ENCODING 184
SWIDTH 823 0
DWIDTH 19 0
BBX 17 21 1 -4
BITMAP
FFFF80
300600
300600
300600
300600
300600
300600
300600
300600
300600
300600
300600
300600
300600
300600
300600
300600
300600
300600
300600
FC1F80
ENDCHAR
STARTCHAR pi
ENCODING 185
SWIDTH 549 0
DWIDTH 14 0
BBX 13 13 0 0
BITMAP
7FF8
FFF8
98C0
18C0
18C0
18C0
18C0
18C0
18C0
18C0
18C8
38F8
30F0
ENDCHAR
STARTCHAR integral
ENCODING 186
SWIDTH 274 0
DWIDTH 8 0
BBX 8 22 0 -5
BITMAP
07
0F
1B
18
18
18
18
18
18
18
18
18
18
18
18
18
18
18
18
D8
F0
E0
ENDCHAR
STARTCHAR ordfeminine
ENCODING 187
SWIDTH 333 0
DWIDTH 10 0
BBX 8 11 1 6
BITMAP
7C
C6
06
1E
66
C6
CE
F6
67
00
FF
ENDCHAR
STARTCHAR ordmasculine
ENCODING 188
SWIDTH 333 0
DWIDTH 10 0
BBX 8 11 1 6
BITMAP
3C
66
43
C3
C3
C3
C2
66
3C
00
FF
ENDCHAR
STARTCHAR Omega
ENCODING 189
SWIDTH 768 0
DWIDTH 18 0
BBX 16 17 1 0
BITMAP
07E0
1E78
381C
700E
6006
C003
C003
C003
C003
C003
6006
300C
1818
8C31
C423
FC3F
FC3F
ENDCHAR
STARTCHAR ae
ENCODING 190
SWIDTH 758 0
DWIDTH 21 0
BBX 19 12 1 0
BITMAP
1F1F00
73F3C0
41E0C0
00C0E0
01C060
0FFFE0
78C000
E0C000
C0E000
C1F060
E67DC0
7C1F00
ENDCHAR
STARTCHAR oslash
ENCODING 191
SWIDTH 556 0
DWIDTH 15 0
BBX 16 12 -1 0
BITMAP
03F6
1C3C
183C
306E
30C6
3186
3306
3606
3C06
180C
3E1C
67E0
ENDCHAR
STARTCHAR questiondown
ENCODING 192
SWIDTH 444 0
DWIDTH 9 0
BBX 8 17 1 -5
BITMAP
0C
0C
00
00
08
0C
0C
0C
18
30
60
C0
C0
C1
C1
E3
7E
ENDCHAR
STARTCHAR exclamdown
ENCODING 193
SWIDTH 278 0
DWIDTH 4 0
BBX 2 19 1 -7
BITMAP
C0
C0
00
00
00
C0
C0
C0
C0
C0
C0
C0
C0
C0
C0
C0
C0
C0
C0
ENDCHAR
STARTCHAR logicalnot
ENCODING 194
SWIDTH 606 0
DWIDTH 14 0
BBX 11 6 1 3
BITMAP
FFE0
0020
0020
0020
0020
0020
ENDCHAR
STARTCHAR radical
ENCODING 195
SWIDTH 549 0
DWIDTH 14 0
BBX 13 17 0 0
BITMAP
0008
0008
0018
3018
7010
D810
1810
0C30
0C30
0620
0620
0320
0360
01C0
01C0
00C0
00C0
ENDCHAR
STARTCHAR florin
ENCODING 196
SWIDTH 500 0
DWIDTH 12 0
BBX 11 24 0 -7
BITMAP
0060
00E0
0120
0300
0300
0300
1FC0
0600
0600
0600
0600
0C00
0C00
0C00
0C00
0C00
1800
1800
1800
1800
1800
9000
E000
C000
ENDCHAR
STARTCHAR approxequal
ENCODING 197
SWIDTH 549 0
DWIDTH 13 0
BBX 11 8 1 3
BITMAP
3820
7C60
C7C0
8380
3820
7C60
C7C0
8380
ENDCHAR
STARTCHAR Delta
ENCODING 198
SWIDTH 612 0
DWIDTH 15 0
BBX 15 17 0 0
BITMAP
0300
0300
0380
0580
04C0
0CC0
0860
0860
1830
1030
3018
2018
200C
600C
4006
C006
FFFE
ENDCHAR
STARTCHAR guillemotleft
ENCODING 199
SWIDTH 500 0
DWIDTH 12 0
BBX 10 7 1 3
BITMAP
18C0
3180
6300
C600
6300
3180
18C0
ENDCHAR
STARTCHAR guillemotright
ENCODING 200
SWIDTH 500 0
DWIDTH 12 0
BBX 10 7 1 3
BITMAP
C600
6300
3180
18C0
3180
6300
C600
ENDCHAR
STARTCHAR ellipsis
ENCODING 201
SWIDTH 1000 0
DWIDTH 18 0
BBX 14 2 1 0
BITMAP
C30C
C30C
ENDCHAR
STARTCHAR nbspace
ENCODING 202
SWIDTH 250 0
DWIDTH 7 0
BBX 1 0 0 -7
BITMAP
ENDCHAR
STARTCHAR Agrave
ENCODING 203
SWIDTH 778 0
DWIDTH 20 0
BBX 19 17 1 0
BITMAP
018000
00C000
006000
003000
000000
007000
00F000
019800
031800
020C00
07FC00
0C0600
180600
100300
300380
600180
F007E0
ENDCHAR
STARTCHAR Atilde
ENCODING 204
SWIDTH 778 0
DWIDTH 20 0
BBX 19 17 1 0
BITMAP
018800
024800
023000
000000
000000
007000
00F000
019800
031800
020C00
07FC00
0C0600
180600
100300
300380
600180
F007E0
ENDCHAR
STARTCHAR Otilde
ENCODING 205
SWIDTH 786 0
DWIDTH 20 0
BBX 17 17 2 0
BITMAP
031000
049000
046000
000000
000000
07F800
1C1E00
300700
600700
600380
C00180
E00180
E00300
700300
700600
3C1C00
0FF000
ENDCHAR
STARTCHAR OE
ENCODING 206
SWIDTH 998 0
DWIDTH 25 0
BBX 22 17 2 0
BITMAP
07FFFC
1C1C0C
300C04
600C00
600C00
C00C00
C00C10
C00C10
C00FF0
C00C10
C00C10
E00C00
600C00
700C00
380C04
1E1C0C
07FFFC
ENDCHAR
STARTCHAR oe
ENCODING 207
SWIDTH 827 0
DWIDTH 24 0
BBX 22 12 1 0
BITMAP
0FC3E0
70EE78
603C18
C0381C
C0180C
C01FFC
C01800
C01800
E01C00
603E0C
786FB8
1F83E0
ENDCHAR
STARTCHAR endash
ENCODING 208
SWIDTH 500 0
DWIDTH 13 0
BBX 11 1 1 6
BITMAP
FFE0
ENDCHAR
STARTCHAR emdash
ENCODING 209
SWIDTH 1000 0
DWIDTH 25 0
BBX 23 1 1 6
BITMAP
FFFFFE
ENDCHAR
STARTCHAR quotedblleft
ENCODING 210
SWIDTH 500 0
DWIDTH 9 0
BBX 7 6 1 11
BITMAP
22
66
44
CC
CC
CC
ENDCHAR
STARTCHAR quotedblright
ENCODING 211
SWIDTH 500 0
DWIDTH 9 0
BBX 7 6 1 11
BITMAP
66
66
66
44
CC
88
ENDCHAR
STARTCHAR quoteleft
ENCODING 212
SWIDTH 278 0
DWIDTH 5 0
BBX 3 6 1 11
BITMAP
20
60
40
C0
C0
C0
ENDCHAR
STARTCHAR quoteright
ENCODING 213
SWIDTH 278 0
DWIDTH 5 0
BBX 3 6 1 11
BITMAP
60
60
60
40
C0
80
ENDCHAR
STARTCHAR divide
ENCODING 214
SWIDTH 549 0
DWIDTH 12 0
BBX 10 8 1 3
BITMAP
0C00
0C00
0000
FFC0
FFC0
0000
0C00
0C00
ENDCHAR
STARTCHAR lozenge
ENCODING 215
SWIDTH 494 0
DWIDTH 12 0
BBX 10 17 1 0
BITMAP
0C00
1E00
1E00
3300
3300
6180
6180
C0C0
C0C0
C0C0
6180
6180
3300
3300
1E00
1E00
0C00
ENDCHAR
STARTCHAR ydieresis
ENCODING 216
SWIDTH 556 0
DWIDTH 13 0
BBX 13 23 0 -7
BITMAP
1980
1980
0000
0000
F038
6010
6030
3020
3060
1840
18C0
0C80
0D80
0700
0700
0200
0600
0400
0C00
0800
1800
F000
E000
ENDCHAR
STARTCHAR Ydieresis
ENCODING 217
SWIDTH 667 0
DWIDTH 17 0
BBX 17 17 0 0
BITMAP
066000
066000
000000
000000
700000
F80780
3C0E00
0E1800
073000
03E000
01C000
00C000
00C000
00C000
00C000
00C000
03F000
ENDCHAR
STARTCHAR fraction
ENCODING 218
SWIDTH 167 0
DWIDTH 4 0
BBX 8 17 -2 0
BITMAP
01
01
03
02
06
04
0C
08
18
10
30
20
60
40
C0
80
80
ENDCHAR
STARTCHAR currency
ENCODING 219
SWIDTH 606 0
DWIDTH 15 0
BBX 13 11 1 3
BITMAP
CF98
7FF0
3060
6030
6030
6030
6030
6030
3060
7FF0
CF98
ENDCHAR
STARTCHAR guilsinglleft
ENCODING 220
SWIDTH 331 0
DWIDTH 7 0
BBX 5 7 1 3
BITMAP
18
30
60
C0
60
30
18
ENDCHAR
STARTCHAR guilsinglright
ENCODING 221
SWIDTH 331 0
DWIDTH 7 0
BBX 5 7 1 3
BITMAP
C0
60
30
18
30
60
C0
ENDCHAR
STARTCHAR fi
ENCODING 222
SWIDTH 605 0
DWIDTH 13 0
BBX 12 17 0 0
BITMAP
0600
0E60
1260
3000
3000
3060
FEE0
3060
3060
3060
3060
3060
3060
3060
3060
3060
78F0
ENDCHAR
STARTCHAR fl
ENCODING 223
SWIDTH 608 0
DWIDTH 13 0
BBX 12 17 0 0
BITMAP
0660
0FE0
1260
3060
3060
3060
FE60
3060
3060
3060
3060
3060
3060
3060
3060
3060
FCF0
ENDCHAR
STARTCHAR daggerdbl
ENCODING 224
SWIDTH 500 0
DWIDTH 12 0
BBX 10 23 1 -6
BITMAP
0C00
0C00
0C00
0C00
0C00
FFC0
0C00
0C00
0C00
0C00
0C00
0C00
0C00
0C00
0C00
0C00
FFC0
0C00
0C00
0C00
0C00
0C00
0C00
ENDCHAR
STARTCHAR periodcentered
ENCODING 225
SWIDTH 250 0
DWIDTH 5 0
BBX 3 3 1 5
BITMAP
E0
E0
E0
ENDCHAR
STARTCHAR quotesinglbase
ENCODING 226
SWIDTH 278 0
DWIDTH 5 0
BBX 3 6 1 -4
BITMAP
60
60
60
40
C0
80
ENDCHAR
STARTCHAR quotedblbase
ENCODING 227
SWIDTH 500 0
DWIDTH 9 0
BBX 7 6 1 -4
BITMAP
66
66
66
44
CC
88
ENDCHAR
STARTCHAR perthousand
ENCODING 228
SWIDTH 1144 0
DWIDTH 26 0
BBX 24 17 1 0
BITMAP
1C3000
725000
63B000
C22000
C26000
C44000
CCC000
708000
018000
010E0E
033939
023131
066161
046161
0C6262
086666
083838
ENDCHAR
STARTCHAR Acircumflex
ENCODING 229
SWIDTH 778 0
DWIDTH 20 0
BBX 19 17 1 0
BITMAP
004000
00E000
01B000
031800
000000
007000
00F000
019800
031800
020C00
07FC00
0C0600
180600
100300
300380
600180
F007E0
ENDCHAR
STARTCHAR Ecircumflex
ENCODING 230
SWIDTH 611 0
DWIDTH 15 0
BBX 12 17 2 0
BITMAP
0400
0E00
1B00
3180
0000
FFF0
3030
3010
3010
3000
3F00
3000
3000
3010
3010
3030
FFF0
ENDCHAR
STARTCHAR Aacute
ENCODING 231
SWIDTH 778 0
DWIDTH 20 0
BBX 19 17 1 0
BITMAP
003000
006000
00C000
018000
000000
007000
00F000
019800
031800
020C00
07FC00
0C0600
180600
100300
300380
600180
F007E0
ENDCHAR
STARTCHAR Edieresis
ENCODING 232
SWIDTH 611 0
DWIDTH 15 0
BBX 12 17 2 0
BITMAP
1980
1980
0000
0000
0000
FFF0
3030
3010
3010
3000
3F00
3000
3000
3010
3010
3030
FFF0
ENDCHAR
STARTCHAR Egrave
ENCODING 233
SWIDTH 611 0
DWIDTH 15 0
BBX 12 17 2 0
BITMAP
3000
1800
0C00
0600
0000
FFF0
3030
3010
3010
3000
3F00
3000
3000
3010
3010
3030
FFF0
ENDCHAR
STARTCHAR Iacute
ENCODING 234
SWIDTH 337 0
DWIDTH 9 0
BBX 6 17 2 0
BITMAP
18
30
60
C0
00
FC
30
30
30
30
30
30
30
30
30
30
FC
ENDCHAR
STARTCHAR Icircumflex
ENCODING 235
SWIDTH 337 0
DWIDTH 9 0
BBX 7 17 2 0
BITMAP
10
38
6C
C6
00
FC
30
30
30
30
30
30
30
30
30
30
FC
ENDCHAR
STARTCHAR Idieresis
ENCODING 236
SWIDTH 337 0
DWIDTH 9 0
BBX 6 17 2 0
BITMAP
CC
CC
00
00
00
FC
30
30
30
30
30
30
30
30
30
30
FC
ENDCHAR
STARTCHAR Igrave
ENCODING 237
SWIDTH 337 0
DWIDTH 9 0
BBX 6 17 2 0
BITMAP
C0
60
30
18
00
FC
30
30
30
30
30
30
30
30
30
30
FC
ENDCHAR
STARTCHAR Oacute
ENCODING 238
SWIDTH 786 0
DWIDTH 20 0
BBX 17 17 2 0
BITMAP
006000
00C000
018000
030000
000000
07F800
1C1E00
300700
600700
600380
C00180
E00180
E00300
700300
700600
3C1C00
0FF000
ENDCHAR
STARTCHAR Ocircumflex
ENCODING 239
SWIDTH 786 0
DWIDTH 20 0
BBX 17 17 2 0
BITMAP
008000
01C000
036000
063000
000000
07F800
1C1E00
300700
600700
600380
C00180
E00180
E00300
700300
700600
3C1C00
0FF000
ENDCHAR
STARTCHAR apple
ENCODING 240
SWIDTH 790 0
DWIDTH 18 0
BBX 16 17 1 0
BITMAP
0070
00F0
00E0
00C0
1E98
3FFC
7FFE
7FFC
FFF8
FFF8
FFF8
7FF8
7FFC
3FFF
3FFE
1FFC
0E38
ENDCHAR
STARTCHAR Ograve
ENCODING 241
SWIDTH 786 0
DWIDTH 20 0
BBX 17 17 2 0
BITMAP
030000
018000
00C000
006000
000000
07F800
1C1E00
300700
600700
600380
C00180
E00180
E00300
700300
700600
3C1C00
0FF000
ENDCHAR
STARTCHAR Uacute
ENCODING 242
SWIDTH 778 0
DWIDTH 20 0
BBX 17 17 2 0
BITMAP
006000
00C000
018000
030000
000000
FC0F80
300200
300200
300200
300200
300200
300200
380200
380600
1C0400
1F1C00
07F000
ENDCHAR
STARTCHAR Ucircumflex
ENCODING 243
SWIDTH 778 0
DWIDTH 20 0
BBX 17 17 2 0
BITMAP
008000
01C000
036000
063000
000000
FC0F80
300200
300200
300200
300200
300200
300200
380200
380600
1C0400
1F1C00
07F000
ENDCHAR
STARTCHAR Ugrave
ENCODING 244
SWIDTH 778 0
DWIDTH 20 0
BBX 17 17 2 0
BITMAP
030000
018000
00C000
006000
000000
FC0F80
300200
300200
300200
300200
300200
300200
380200
380600
1C0400
1F1C00
07F000
ENDCHAR
STARTCHAR dotlessi
ENCODING 245
SWIDTH 287 0
DWIDTH 6 0
BBX 5 12 0 0
BITMAP
30
F0
30
30
30
30
30
30
30
30
30
78
ENDCHAR
STARTCHAR circumflex
ENCODING 246
SWIDTH 333 0
DWIDTH 8 0
BBX 7 4 0 13
BITMAP
10
38
6C
C6
ENDCHAR
STARTCHAR tilde
ENCODING 247
SWIDTH 333 0
DWIDTH 8 0
BBX 8 2 0 13
BITMAP
73
CE
ENDCHAR
STARTCHAR macron
ENCODING 248
SWIDTH 333 0
DWIDTH 8 0
BBX 6 1 1 13
BITMAP
FC
ENDCHAR
STARTCHAR breve
ENCODING 249
SWIDTH 333 0
DWIDTH 8 0
BBX 6 3 1 13
BITMAP
84
CC
78
ENDCHAR
STARTCHAR dotaccent
ENCODING 250
SWIDTH 250 0
DWIDTH 6 0
BBX 2 2 2 13
BITMAP
C0
C0
ENDCHAR
STARTCHAR ring
ENCODING 251
SWIDTH 333 0
DWIDTH 7 0
BBX 5 4 1 13
BITMAP
70
88
88
70
ENDCHAR
STARTCHAR cedilla
ENCODING 252
SWIDTH 333 0
DWIDTH 8 0
BBX 4 5 2 -5
BITMAP
40
60
30
30
E0
ENDCHAR
STARTCHAR hungarumlaut
ENCODING 253
SWIDTH 380 0
DWIDTH 9 0
BBX 9 4 0 13
BITMAP
1980
3300
6600
CC00
ENDCHAR
STARTCHAR ogonek
ENCODING 254
SWIDTH 313 0
DWIDTH 8 0
BBX 4 5 2 -5
BITMAP
60
C0
80
D0
60
ENDCHAR
STARTCHAR caron
ENCODING 255
SWIDTH 333 0
DWIDTH 8 0
BBX 7 4 0 13
BITMAP
C6
6C
38
10
ENDCHAR
ENDFONT
